# ProBuilder 4.4.0
# https://unity3d.com/unity/features/worldbuilding/probuilder
# 16/09/2021 11:18:15

mtllib ./Plateforme_lvl_corner_ground.mtl
o Plateforme_lvl_corner_ground

g Plateforme_lvl_corner_ground
v -0.5570275 25.39941 3.244348
v -1.955867 25.39941 3.244348
v -1.955867 25.39941 -1.165809
v -1.677667 25.39941 -1.165809
v 0.962005 25.39941 2.96736
v -1.472548 25.39941 -1.238785
v -1.305392 25.39941 -1.357541
v 2.104263 25.39941 2.246346
v -1.183979 25.39941 -1.535491
v 2.972318 25.39941 1.056426
v -1.120906 25.39941 -1.741747
v 3.28925 25.39941 -0.4229097
v -1.120906 25.39941 -2.000776
v 3.28925 25.39941 -2.000776

vt 3.81336 5.811339
vt 3.801105 5.811291
vt 3.801105 5.847581
vt 3.803532 5.847648
vt 3.101501 5.892745
vt 3.123527 5.897526
vt 3.141263 5.832
vt 3.138868 5.830708
vt -0.7431339 1.853984
vt -0.7845455 1.922734
vt -0.7818914 1.924166
vt -0.7264599 1.864749
vt -1.218773 1.432638
vt -1.220161 1.430027
vt -1.287095 1.473381
vt -1.274204 1.492055
vt 5.207505 7.714263
vt 5.207049 7.71439
vt 5.207085 7.714557
vt 2.172897 6.884366
vt 2.137325 6.894279
vt 2.137378 6.896693
vt 2.172887 6.896693

vn 0 1 0

usemtl MainPlatformGrey
f 4/4/1 3/3/1 2/2/1 1/1/1
f 6/8/1 4/7/1 1/6/1 5/5/1
f 8/12/1 7/11/1 6/10/1 5/9/1
f 8/16/1 10/15/1 9/14/1 7/13/1
f 10/19/1 12/18/1 11/17/1 9/17/1
f 14/23/1 13/22/1 11/21/1 12/20/1

