# ProBuilder 4.4.0
# https://unity3d.com/unity/features/worldbuilding/probuilder
# 16/09/2021 11:18:08

mtllib ./Plateforme_lvl_corner_border.mtl
o Plateforme_lvl_corner_border

g Plateforme_lvl_corner_border
v -1.435359 25.21072 -2.000776
v -1.267234 25.37885 -2.000775
v -1.372019 25.31598 -2.000776
v -1.955867 25.37891 -1.312293
v -1.955867 25.06445 3.579309
v -1.955867 25.06445 -1.50077
v -1.955846 25.31598 -1.416956
v -1.955856 25.21072 -1.480262
v -1.455867 25.06445 -2.000776
v -1.120906 25.39941 -2.000776
v 3.602605 25.21094 -2.000776
v 3.539983 25.31641 -2.000776
v 3.435735 25.37891 -2.000776
v 3.28925 25.39941 -2.000776
v 3.624211 25.06445 -2.000776
v 3.624211 0 -2.000776
v -1.455867 0 -2.000776
v -1.955867 25.31641 3.505822
v -1.955867 25.21094 3.557824
v -1.955867 25.37891 3.411828
v -1.955867 25.39941 3.244348
v -1.955867 25.39941 -1.165809
v -1.955867 0 3.579309
v -1.955867 0 -1.50077
v -1.800907 0 -1.50077
v -0.5456488 0 3.579309
v -1.671905 0 -1.542405
v -1.580867 0 -1.625773
v 1.101284 0 3.29643
v 2.315953 0 2.491921
v 3.249211 0 1.238643
v 3.624211 0 -0.4206915
v -1.492077 0 -1.730371
v -1.455867 0 -1.863276
v 3.436223 25.37891 -0.4218006
v 3.28925 25.39941 -0.4229097
v 3.540227 25.31641 -0.4212465
v 3.602727 25.21094 -0.420969
v 3.624211 25.06445 -0.4206915
v 3.118671 25.37891 1.15941
v 2.972318 25.39941 1.056426
v 3.183941 25.31641 1.199027
v 3.229985 25.21094 1.227773
v 3.249211 25.06445 1.238643
v 2.201879 25.37891 2.368827
v 2.104263 25.39941 2.246346
v 2.258916 25.31641 2.430375
v 2.300088 25.21094 2.474591
v 2.315953 25.06445 2.491921
v 0.962005 25.39941 2.96736
v 1.031217 25.37891 3.124074
v 1.066251 25.31641 3.210254
v 1.091592 25.21094 3.27078
v 1.101284 25.06445 3.29643
v -0.5513381 25.37891 3.390832
v -0.5570275 25.39941 3.244348
v -0.5484934 25.31641 3.495324
v -0.5470711 25.21094 3.552575
v -0.5456488 25.06445 3.579309
v -1.800907 25.06445 -1.50077
v -1.671905 25.06445 -1.542405
v -1.580867 25.06445 -1.625773
v -1.492077 25.06445 -1.730371
v -1.455867 25.06445 -1.863276
v -1.778731 25.21094 -1.480262
v -1.745097 25.31641 -1.41531
v -1.639554 25.21094 -1.520685
v -1.705557 25.37891 -1.312293
v -1.677667 25.39941 -1.165809
v -1.595134 25.31641 -1.465053
v -1.52937 25.37891 -1.362947
v -1.472548 25.39941 -1.238785
v -1.560034 25.21094 -1.60605
v -1.504829 25.31641 -1.550047
v -1.407417 25.37891 -1.457356
v -1.305392 25.39941 -1.357541
v -1.183979 25.39941 -1.535491
v -1.47358 25.21094 -1.701786
v -1.416891 25.31641 -1.648721
v -1.371882 25.31641 -1.797396
v -1.435359 25.21094 -1.839387
v -1.320172 25.37891 -1.580283
v -1.26739 25.37842 -1.753005
v -1.120906 25.39941 -1.741747

vt -2.205478 1.041567
vt -1.573455 0.9159565
vt -1.994803 0.9996967
vt 0.7372344 0.9159565
vt 4.580085 0.583437
vt 3 1.083437
vt 1.868617 0.9996967
vt 2.434309 1.041567
vt -2.416152 1.083437
vt -3.206191 1.083437
vt -3.93373 0.645937
vt -3.87123 0.708437
vt -3.74623 0.833437
vt -3.49623 1.083437
vt -3.99623 0.583437
vt -3.99623 -24.31598
vt -2.416152 -24.31598
vt 4.455085 0.708437
vt 4.517585 0.645937
vt 4.330085 0.833437
vt 4.080085 1.083437
vt 0.7080759 1.083437
vt 4.580085 -24.31598
vt 3 -24.31598
vt -1.955867 -1.50077
vt -1.955867 3.579309
vt -1.800907 -1.50077
vt -0.5456488 3.579309
vt -1.671905 -1.542405
vt -1.580867 -1.625773
vt 1.101284 3.29643
vt 2.315953 2.491921
vt 3.249211 1.238643
vt 3.624211 -0.4206915
vt -1.492077 -1.730371
vt -1.455867 -1.863276
vt 3.624211 -2.000776
vt -1.455867 -2.000776
vt 15.62423 -1.998667
vt 15.50576 -0.4196817
vt 15.62423 -0.4208001
vt 15.50611 -1.998657
vt 15.38801 -0.4191245
vt 15.38818 -1.998654
vt 15.26926 -0.4188502
vt 15.26934 -1.998657
vt 15.15053 -0.4185818
vt 15.15053 -1.998667
vt 15.52859 -3.495243
vt 15.63541 -1.910757
vt 15.75386 -1.999206
vt 15.4097 -3.507564
vt 15.54505 -1.871819
vt 15.29182 -3.511358
vt 15.43814 -1.836971
vt 15.1732 -3.5064
vt 15.32143 -1.812538
vt 15.05489 -3.492678
vt 14.62765 -8.410378
vt 15.1905 -7.000919
vt 15.27714 -7.088499
vt 14.50455 -8.354671
vt 14.41424 -8.31767
vt 15.10636 -6.941854
vt 14.30982 -8.27037
vt 15.00558 -6.879266
vt 14.19825 -8.217445
vt 14.89652 -6.819565
vt 10.85103 -12.18597
vt 11.93325 -11.34238
vt 10.94573 -12.2639
vt 11.86311 -11.22863
vt 10.77031 -12.12173
vt 11.80141 -11.13812
vt 10.68171 -12.04369
vt 11.7265 -11.0423
vt 10.59437 -11.95755
vt 11.6445 -10.94768
vt 3.333308 -15.47461
vt 4.821538 -14.97925
vt 4.830603 -15.09754
vt 3.261629 -15.35648
vt 3.216562 -15.2559
vt 4.808199 -14.86178
vt 4.789018 -14.74836
vt 3.173804 -15.14296
vt 4.762924 -14.62856
vt 3.139558 -15.02491
vt -0.5637065 15.58657
vt -1.967691 15.7081
vt -0.5688614 15.7045
vt -1.968303 15.57536
vt -1.968645 15.46475
vt -0.5612431 15.46853
vt -1.968835 15.35333
vt -0.5600297 15.35341
vt -1.968914 15.2344
vt -0.558705 15.23077
vt -0.003770113 0.583437
vt -0.003770113 -24.31598
vt -1.583848 -24.31598
vt -1.583848 0.583437
vt 1 0.583437
vt 1 -24.31598
vt -0.5800848 -24.31598
vt -0.5800848 0.583437
vt 2.478229 -24.31598
vt 0.9948744 0.583437
vt 2.478229 0.583437
vt 0.9948744 -24.31598
vt -0.5022703 0.583437
vt -0.5022703 -24.31598
vt -1.833015 -24.31598
vt -1.833015 0.583437
vt -3.177549 -24.31598
vt -3.177549 0.583437
vt 0.1769016 0
vt 0.2848054 25.06445
vt 0.2848054 0
vt 0.1769016 25.06445
vt 0.05719076 0
vt 0.05719076 25.06445
vt -0.06603716 0
vt -0.06603716 25.06445
vt -0.2029367 0
vt -0.2029367 25.06445
vt -0.3235385 0
vt -0.3235385 25.06445
vt -0.4222253 0
vt -0.4222253 25.06445
vt -11.07568 8.649014
vt -11.01556 8.757977
vt -10.94183 8.683615
vt -11.16865 8.718508
vt -11.06861 8.855009
vt -11.1871 8.582884
vt -11.25086 8.809589
vt -11.1003 8.972923
vt -11.28887 8.651192
vt -11.3165 8.917032
vt -11.11064 9.112093
vt -11.35093 9.049973
vt -11.38038 8.73151
vt -11.46868 8.832281
vt -11.5281 8.93875
vt -11.35755 8.556908
vt -11.26573 8.487818
vt -11.45838 8.63515
vt -11.57402 8.720413
vt -11.67247 8.794963
vt -11.77734 8.608324
vt -11.43222 8.451777
vt -11.34243 8.374222
vt -11.53434 8.527056
vt -11.57321 8.383721
vt -11.46524 8.319887
vt -11.3737 8.24699
vt -11.3737 8.123723
vt -11.46513 8.175123
vt -11.57288 8.201261
vt -11.69507 8.201926
vt -11.64937 8.590731
vt -11.69472 8.423917
vt -11.83182 8.409336
vt -11.83182 8.177121

vn 1.042064E-05 -4.748062E-06 -1
vn -1 6.296997E-05 -0.0001050611
vn 0 -1 0
vn 0.1383709 0.9903805 -2.141929E-05
vn 0.3516922 0.9353393 0.03812015
vn 0.1337579 0.9909235 0.01339405
vn 0.3333159 0.9428152 -8.273312E-05
vn 0.7126561 0.6970615 0.07890762
vn 0.7087665 0.7054432 -9.230485E-05
vn 0.9372367 0.3325924 0.1047364
vn 0.9424489 0.3343503 -5.323872E-05
vn 0.9912145 0.07251374 0.1106143
vn 0.9973208 0.07315223 0
vn 0.3589045 0.9196549 0.1594439
vn 0.1102875 0.9926427 0.04997173
vn 0.6936014 0.6462203 0.3183023
vn 0.8609437 0.3192961 0.3960125
vn 0.9058821 0.07538714 0.4167666
vn 0.2567942 0.9264302 0.2752886
vn 0.0891965 0.9914865 0.09486078
vn 0.5117616 0.6645634 0.5444773
vn 0.6462859 0.3365789 0.6848571
vn 0.6848787 0.0823907 0.7239841
vn 0.04510259 0.9920464 0.1175151
vn 0.1286843 0.9357127 0.3284542
vn 0.265691 0.6925655 0.6706424
vn 0.343257 0.3597136 0.8676294
vn 0.3670747 0.09240884 0.9255899
vn 0.03120455 0.9398977 0.3400273
vn 0.01254617 0.9903376 0.1381088
vn 0.06551266 0.6882892 0.7224722
vn 0.08165286 0.3342591 0.9389375
vn 0.08462361 0.09049059 0.9922955
vn 0.0009081527 0.9915068 0.1300521
vn 0.005186153 0.937878 0.3469265
vn 0.006620971 0.6690526 0.7431856
vn 0.004395125 0.3066285 0.9518191
vn 0.0009247088 0.08143766 0.9966781
vn 0.08494812 0 0.9963854
vn 0 0 1
vn 1 0 0
vn 0.9938314 0 0.1109017
vn 0.9084792 0 0.41793
vn 0.6873682 0 0.7263092
vn 0.3686413 0 0.9295717
vn -0.1554634 0 -0.9878417
vn 0 0.06959234 -0.9975755
vn -0.154747 0.08013599 -0.9846988
vn -0.5027877 0 -0.8644099
vn -0.5047181 0.106142 -0.8567343
vn -0.7202786 0 -0.693685
vn -0.714026 0.09977345 -0.6929734
vn -0.8847144 0 -0.4661335
vn -0.8801808 0.1004669 -0.4638836
vn -0.991169 0 -0.1326051
vn -0.988065 0.0794059 -0.1319933
vn -0.9975791 0.0695414 -4.729186E-05
vn -0.0003694997 0.3338033 -0.9426427
vn -0.1330293 0.3631257 -0.9221946
vn 0.002448991 0.7087375 -0.7054681
vn -0.1027087 0.7240604 -0.6820466
vn 0.0005816311 0.942357 -0.3346086
vn -0.4728387 0.413548 -0.7780756
vn -0.04612561 0.9466594 -0.3189173
vn 0 0.9903488 -0.1385976
vn -0.02194084 0.9902872 -0.1372947
vn -0.3380024 0.7447789 -0.575377
vn -0.1414749 0.9534639 -0.2662545
vn -0.06922372 0.9891221 -0.1297908
vn -0.6653697 0.4115192 -0.6228445
vn -0.4595304 0.7682677 -0.4456418
vn -0.2066766 0.9564494 -0.2061296
vn -0.1014731 0.9898424 -0.09957575
vn -0.1282852 0.9897125 -0.06334136
vn -0.8049725 0.3991863 -0.4389413
vn -0.5742174 0.7575654 -0.3104337
vn -0.6801314 0.726679 -0.09674118
vn -0.9250062 0.359032 -0.1243364
vn -0.9425618 0.3340316 -0.0004054172
vn -0.7066512 0.7075614 -0.001016703
vn -0.3331244 0.9428828 0.0003427975
vn -0.2791136 0.9503424 -0.1376406
vn -0.318195 0.9468747 -0.04669384
vn -0.1395723 0.9899939 -0.02077752
vn -0.139135 0.9902734 0

usemtl MainPlatformWhite
f 20/20/2 19/19/2 18/18/2
f 19/19/2 22/22/2 4/4/2
f 26/28/3 25/27/3 27/29/3
f 30/32/3 29/31/3 28/30/3
f 31/33/3 30/32/3 28/30/3
f 32/34/3 33/35/3 34/36/3
f 1/1/1 3/3/1 2/2/1
f 2/2/1 9/9/1 1/1/1
f 4/4/2 6/6/2 5/5/2
f 5/5/2 19/19/2 4/4/2
f 6/6/2 4/4/2 7/7/2
f 7/7/2 8/8/2 6/6/2
f 15/15/1 9/9/1 2/2/1
f 2/2/1 10/10/1 15/15/1
f 13/13/1 12/12/1 11/11/1
f 11/11/1 14/14/1 13/13/1
f 10/10/1 14/14/1 11/11/1
f 11/11/1 15/15/1 10/10/1
f 17/17/1 9/9/1 15/15/1
f 15/15/1 16/16/1 17/17/1
f 22/22/2 19/19/2 20/20/2
f 20/20/2 21/21/2 22/22/2
f 24/24/2 23/23/2 5/5/2
f 5/5/2 6/6/2 24/24/2
f 26/28/3 23/26/3 24/25/3
f 24/25/3 25/27/3 26/28/3
f 26/28/3 27/29/3 28/30/3
f 28/30/3 29/31/3 26/28/3
f 33/35/3 32/34/3 31/33/3
f 31/33/3 28/30/3 33/35/3
f 16/37/3 32/34/3 34/36/3
f 34/36/3 17/38/3 16/37/3
f 14/39/4 36/41/6 35/40/5
f 35/40/5 13/42/7 14/39/4
f 13/42/7 35/40/5 37/43/8
f 37/43/8 12/44/9 13/42/7
f 12/44/9 37/43/8 38/45/10
f 38/45/10 11/46/11 12/44/9
f 11/46/11 38/45/10 39/47/12
f 39/47/12 15/48/13 11/46/11
f 36/49/6 41/51/15 40/50/14
f 40/50/14 35/52/5 36/49/6
f 35/52/5 40/50/14 42/53/16
f 42/53/16 37/54/8 35/52/5
f 37/54/8 42/53/16 43/55/17
f 43/55/17 38/56/10 37/54/8
f 38/56/10 43/55/17 44/57/18
f 44/57/18 39/58/12 38/56/10
f 41/59/15 46/61/20 45/60/19
f 45/60/19 40/62/14 41/59/15
f 42/63/16 40/62/14 45/60/19
f 45/60/19 47/64/21 42/63/16
f 43/65/17 42/63/16 47/64/21
f 47/64/21 48/66/22 43/65/17
f 44/67/18 43/65/17 48/66/22
f 48/66/22 49/68/23 44/67/18
f 45/69/19 46/71/20 50/70/24
f 50/70/24 51/72/25 45/69/19
f 47/73/21 45/69/19 51/72/25
f 51/72/25 52/74/26 47/73/21
f 48/75/22 47/73/21 52/74/26
f 52/74/26 53/76/27 48/75/22
f 49/77/23 48/75/22 53/76/27
f 53/76/27 54/78/28 49/77/23
f 50/79/24 56/81/30 55/80/29
f 55/80/29 51/82/25 50/79/24
f 52/83/26 51/82/25 55/80/29
f 55/80/29 57/84/31 52/83/26
f 52/83/26 57/84/31 58/85/32
f 58/85/32 53/86/27 52/83/26
f 53/86/27 58/85/32 59/87/33
f 59/87/33 54/88/28 53/86/27
f 55/89/29 56/91/30 21/90/34
f 21/90/34 20/92/35 55/89/29
f 55/89/29 20/92/35 18/93/36
f 18/93/36 57/94/31 55/89/29
f 57/94/31 18/93/36 19/95/37
f 19/95/37 58/96/32 57/94/31
f 58/96/32 19/95/37 5/97/38
f 5/97/38 59/98/33 58/96/32
f 23/101/40 26/100/39 59/99/33
f 59/99/33 5/102/38 23/101/40
f 32/105/42 16/104/41 15/103/13
f 15/103/13 39/106/12 32/105/42
f 32/107/42 39/109/12 44/108/18
f 44/108/18 31/110/43 32/107/42
f 31/110/43 44/108/18 49/111/23
f 49/111/23 30/112/44 31/110/43
f 29/113/45 30/112/44 49/111/23
f 49/111/23 54/114/28 29/113/45
f 26/115/39 29/113/45 54/114/28
f 54/114/28 59/116/33 26/115/39
f 25/117/46 24/119/1 6/118/47
f 6/118/47 60/120/48 25/117/46
f 27/121/49 25/117/46 60/120/48
f 60/120/48 61/122/50 27/121/49
f 28/123/51 27/121/49 61/122/50
f 61/122/50 62/124/52 28/123/51
f 33/125/53 28/123/51 62/124/52
f 62/124/52 63/126/54 33/125/53
f 34/127/55 33/125/53 63/126/54
f 63/126/54 64/128/56 34/127/55
f 17/129/2 34/127/55 64/128/56
f 64/128/56 9/130/57 17/129/2
f 60/131/48 6/133/47 8/132/58
f 8/132/58 65/134/59 60/131/48
f 65/134/59 8/132/58 7/135/60
f 7/135/60 66/137/61 65/134/59
f 61/136/50 60/131/48 65/134/59
f 65/134/59 67/139/63 61/136/50
f 66/137/61 7/135/60 4/138/62
f 4/138/62 68/140/64 66/137/61
f 67/139/63 65/134/59 66/137/61
f 66/137/61 70/143/67 67/139/63
f 68/140/64 4/138/62 22/141/65
f 22/141/65 69/142/66 68/140/64
f 70/143/67 66/137/61 68/140/64
f 68/140/64 71/144/68 70/143/67
f 71/144/68 68/140/64 69/142/66
f 69/142/66 72/145/69 71/144/68
f 61/136/50 67/139/63 73/146/70
f 73/146/70 62/147/52 61/136/50
f 67/139/63 70/143/67 74/148/71
f 74/148/71 73/146/70 67/139/63
f 74/148/71 70/143/67 71/144/68
f 71/144/68 75/149/72 74/148/71
f 75/149/72 71/144/68 72/145/69
f 72/145/69 76/150/73 75/149/72
f 75/149/72 76/150/73 77/151/74
f 77/151/74 82/162/82 75/149/72
f 62/147/52 73/146/70 78/152/75
f 78/152/75 63/153/54 62/147/52
f 73/146/70 74/148/71 79/154/76
f 79/154/76 78/152/75 73/146/70
f 79/154/76 74/148/71 75/149/72
f 75/149/72 82/162/82 79/154/76
f 78/152/75 79/154/76 80/155/77
f 80/155/77 81/156/78 78/152/75
f 63/153/54 78/152/75 81/156/78
f 81/156/78 64/157/56 63/153/54
f 9/158/57 64/157/56 81/156/78
f 81/156/78 1/159/79 9/158/57
f 1/159/79 81/156/78 80/155/77
f 80/155/77 3/160/80 1/159/79
f 2/161/81 3/160/80 80/155/77
f 80/155/77 83/163/83 2/161/81
f 80/155/77 79/154/76 82/162/82
f 82/162/82 83/163/83 80/155/77
f 83/163/83 82/162/82 77/151/74
f 77/151/74 84/164/84 83/163/83
f 2/161/81 83/163/83 84/164/84
f 84/164/84 10/165/85 2/161/81

